<?xml version="1.0" encoding="UTF-8"?>
<svg width="88" height="88" viewBox="0 0 88 88" xmlns="http://www.w3.org/2000/svg">
  <defs>
    <linearGradient id="teal" x1="0%" y1="0%" x2="100%" y2="100%">
      <stop offset="0%" stop-color="#0d9488"/>
      <stop offset="100%" stop-color="#0f766e"/>
    </linearGradient>
    <linearGradient id="coral" x1="0%" y1="0%" x2="100%" y2="100%">
      <stop offset="0%" stop-color="#f97316"/>
      <stop offset="100%" stop-color="#ea580c"/>
    </linearGradient>
  </defs>
  <line x1="44" y1="44" x2="44" y2="10" stroke="url(#teal)" stroke-width="5" stroke-linecap="round"/>
  <line x1="44" y1="44" x2="68" y2="20" stroke="url(#teal)" stroke-width="5" stroke-linecap="round"/>
  <line x1="44" y1="44" x2="78" y2="44" stroke="url(#teal)" stroke-width="5" stroke-linecap="round"/>
  <line x1="44" y1="44" x2="68" y2="68" stroke="url(#teal)" stroke-width="5" stroke-linecap="round"/>
  <line x1="44" y1="44" x2="44" y2="78" stroke="url(#teal)" stroke-width="5" stroke-linecap="round"/>
  <line x1="44" y1="44" x2="20" y2="68" stroke="url(#teal)" stroke-width="5" stroke-linecap="round"/>
  <line x1="44" y1="44" x2="10" y2="44" stroke="url(#teal)" stroke-width="5" stroke-linecap="round"/>
  <line x1="44" y1="44" x2="20" y2="20" stroke="url(#teal)" stroke-width="5" stroke-linecap="round"/>
  <circle cx="44" cy="10" r="8" fill="none" stroke="url(#coral)" stroke-width="4"/>
  <circle cx="68" cy="20" r="8" fill="none" stroke="url(#coral)" stroke-width="4"/>
  <circle cx="78" cy="44" r="8" fill="none" stroke="url(#coral)" stroke-width="4"/>
  <circle cx="68" cy="68" r="8" fill="none" stroke="url(#coral)" stroke-width="4"/>
  <circle cx="44" cy="78" r="8" fill="none" stroke="url(#coral)" stroke-width="4"/>
  <circle cx="20" cy="68" r="8" fill="none" stroke="url(#coral)" stroke-width="4"/>
  <circle cx="10" cy="44" r="8" fill="none" stroke="url(#coral)" stroke-width="4"/>
  <circle cx="20" cy="20" r="8" fill="none" stroke="url(#coral)" stroke-width="4"/>
  <circle cx="44" cy="44" r="14" fill="none" stroke="url(#teal)" stroke-width="5"/>
  <line x1="37" y1="37" x2="51" y2="51" stroke="url(#teal)" stroke-width="4" stroke-linecap="round"/>
  <line x1="51" y1="37" x2="37" y2="51" stroke="url(#teal)" stroke-width="4" stroke-linecap="round"/>
</svg>
